<svg width="410" height="880" viewBox="0 0 410 880" fill="none" xmlns="http://www.w3.org/2000/svg">
<g clip-path="url(#clip0_10_41)">
<path d="M303 16V880" stroke="url(#paint0_linear_10_41)" stroke-width="3" stroke-linecap="round" stroke-dasharray="1 10"/>
<path d="M79.232 149.592C77.776 149.592 76.536 149.352 75.512 148.872C74.488 148.392 73.704 147.728 73.16 146.88C72.616 146.032 72.344 145.072 72.344 144H74.696C74.696 144.528 74.832 145.056 75.104 145.584C75.392 146.112 75.864 146.552 76.52 146.904C77.192 147.256 78.096 147.432 79.232 147.432C80.288 147.432 81.152 147.28 81.824 146.976C82.496 146.656 82.992 146.248 83.312 145.752C83.632 145.24 83.792 144.688 83.792 144.096C83.792 143.376 83.48 142.784 82.856 142.32C82.232 141.84 81.32 141.544 80.12 141.432L78.176 141.264C76.624 141.136 75.384 140.656 74.456 139.824C73.528 138.992 73.064 137.896 73.064 136.536C73.064 135.464 73.32 134.528 73.832 133.728C74.36 132.928 75.088 132.304 76.016 131.856C76.944 131.392 78.024 131.16 79.256 131.16C80.472 131.16 81.544 131.384 82.472 131.832C83.4 132.28 84.12 132.912 84.632 133.728C85.16 134.528 85.424 135.488 85.424 136.608H83.072C83.072 136.048 82.936 135.52 82.664 135.024C82.408 134.528 82 134.12 81.44 133.8C80.88 133.48 80.152 133.32 79.256 133.32C78.392 133.32 77.672 133.472 77.096 133.776C76.536 134.08 76.112 134.48 75.824 134.976C75.552 135.456 75.416 135.976 75.416 136.536C75.416 137.176 75.664 137.744 76.16 138.24C76.656 138.736 77.392 139.024 78.368 139.104L80.312 139.272C81.512 139.368 82.544 139.624 83.408 140.04C84.288 140.44 84.96 140.984 85.424 141.672C85.904 142.344 86.144 143.152 86.144 144.096C86.144 145.168 85.856 146.12 85.28 146.952C84.704 147.784 83.896 148.432 82.856 148.896C81.816 149.36 80.608 149.592 79.232 149.592ZM95.2029 149.592C94.0829 149.592 93.1149 149.4 92.2989 149.016C91.4829 148.632 90.8189 148.128 90.3069 147.504C89.7949 146.864 89.4109 146.152 89.1549 145.368C88.9149 144.584 88.7949 143.784 88.7949 142.968V142.536C88.7949 141.704 88.9149 140.896 89.1549 140.112C89.4109 139.328 89.7949 138.624 90.3069 138C90.8189 137.36 91.4669 136.856 92.2509 136.488C93.0509 136.104 93.9869 135.912 95.0589 135.912C96.4509 135.912 97.5949 136.216 98.4909 136.824C99.4029 137.416 100.075 138.184 100.507 139.128C100.955 140.072 101.179 141.08 101.179 142.152V143.184H89.8029V141.456H99.4989L98.9709 142.392C98.9709 141.48 98.8269 140.696 98.5389 140.04C98.2509 139.368 97.8189 138.848 97.2429 138.48C96.6669 138.112 95.9389 137.928 95.0589 137.928C94.1469 137.928 93.3869 138.136 92.7789 138.552C92.1869 138.968 91.7389 139.536 91.4349 140.256C91.1469 140.976 91.0029 141.808 91.0029 142.752C91.0029 143.664 91.1469 144.488 91.4349 145.224C91.7389 145.944 92.2029 146.52 92.8269 146.952C93.4509 147.368 94.2429 147.576 95.2029 147.576C96.2109 147.576 97.0269 147.352 97.6509 146.904C98.2909 146.456 98.6749 145.936 98.8029 145.344H100.963C100.787 146.224 100.435 146.984 99.9069 147.624C99.3789 148.264 98.7149 148.752 97.9149 149.088C97.1149 149.424 96.2109 149.592 95.2029 149.592ZM104.45 149.16V136.344H106.274V141.84H105.986C105.986 140.592 106.146 139.536 106.466 138.672C106.802 137.792 107.298 137.12 107.954 136.656C108.61 136.192 109.442 135.96 110.45 135.96H110.546C111.554 135.96 112.386 136.192 113.042 136.656C113.714 137.12 114.21 137.792 114.53 138.672C114.85 139.536 115.01 140.592 115.01 141.84H114.338C114.338 140.592 114.506 139.536 114.842 138.672C115.178 137.792 115.674 137.12 116.33 136.656C117.002 136.192 117.842 135.96 118.85 135.96H118.946C119.954 135.96 120.794 136.192 121.466 136.656C122.138 137.12 122.634 137.792 122.954 138.672C123.29 139.536 123.458 140.592 123.458 141.84V149.16H121.154V141.336C121.154 140.296 120.898 139.496 120.386 138.936C119.874 138.36 119.162 138.072 118.25 138.072C117.306 138.072 116.546 138.376 115.97 138.984C115.394 139.576 115.106 140.408 115.106 141.48V149.16H112.802V141.336C112.802 140.296 112.546 139.496 112.034 138.936C111.522 138.36 110.81 138.072 109.898 138.072C108.954 138.072 108.194 138.376 107.618 138.984C107.042 139.576 106.754 140.408 106.754 141.48V149.16H104.45ZM138.13 149.304C137.17 149.304 136.338 149.168 135.634 148.896C134.946 148.624 134.41 148.16 134.026 147.504C133.658 146.832 133.474 145.928 133.474 144.792V132.456H135.682V145.08C135.682 145.768 135.866 146.304 136.234 146.688C136.618 147.056 137.154 147.24 137.842 147.24H140.098V149.304H138.13ZM131.266 138.072V136.344H140.098V138.072H131.266ZM151.062 149.16V145.32H150.678V140.88C150.678 140 150.446 139.336 149.982 138.888C149.534 138.44 148.87 138.216 147.99 138.216C147.494 138.216 146.982 138.224 146.454 138.24C145.926 138.256 145.422 138.272 144.942 138.288C144.462 138.304 144.046 138.328 143.694 138.36V136.344C144.046 136.312 144.414 136.288 144.798 136.272C145.198 136.24 145.606 136.224 146.022 136.224C146.438 136.208 146.838 136.2 147.222 136.2C148.534 136.2 149.606 136.36 150.438 136.68C151.27 136.984 151.886 137.488 152.286 138.192C152.686 138.896 152.886 139.848 152.886 141.048V149.16H151.062ZM146.862 149.496C145.902 149.496 145.07 149.336 144.366 149.016C143.678 148.68 143.142 148.2 142.758 147.576C142.39 146.952 142.206 146.2 142.206 145.32C142.206 144.408 142.406 143.648 142.806 143.04C143.222 142.432 143.822 141.976 144.606 141.672C145.39 141.352 146.334 141.192 147.438 141.192H150.918V142.92H147.342C146.414 142.92 145.702 143.144 145.206 143.592C144.71 144.04 144.462 144.616 144.462 145.32C144.462 146.024 144.71 146.592 145.206 147.024C145.702 147.456 146.414 147.672 147.342 147.672C147.886 147.672 148.406 147.576 148.902 147.384C149.398 147.176 149.806 146.84 150.126 146.376C150.462 145.896 150.646 145.24 150.678 144.408L151.302 145.32C151.222 146.232 150.998 147 150.63 147.624C150.278 148.232 149.782 148.696 149.142 149.016C148.518 149.336 147.758 149.496 146.862 149.496ZM155.578 149.16L160.162 142.416L160.09 142.896L155.794 136.344H158.338L161.434 141.168H161.77L164.698 136.344H167.074L163.018 142.728L163.09 142.296L167.89 149.16H165.346L161.746 143.952H161.41L157.954 149.16H155.578ZM178.062 149.16V145.32H177.678V140.88C177.678 140 177.446 139.336 176.982 138.888C176.534 138.44 175.87 138.216 174.99 138.216C174.494 138.216 173.982 138.224 173.454 138.24C172.926 138.256 172.422 138.272 171.942 138.288C171.462 138.304 171.046 138.328 170.694 138.36V136.344C171.046 136.312 171.414 136.288 171.798 136.272C172.198 136.24 172.606 136.224 173.022 136.224C173.438 136.208 173.838 136.2 174.222 136.2C175.534 136.2 176.606 136.36 177.438 136.68C178.27 136.984 178.886 137.488 179.286 138.192C179.686 138.896 179.886 139.848 179.886 141.048V149.16H178.062ZM173.862 149.496C172.902 149.496 172.07 149.336 171.366 149.016C170.678 148.68 170.142 148.2 169.758 147.576C169.39 146.952 169.206 146.2 169.206 145.32C169.206 144.408 169.406 143.648 169.806 143.04C170.222 142.432 170.822 141.976 171.606 141.672C172.39 141.352 173.334 141.192 174.438 141.192H177.918V142.92H174.342C173.414 142.92 172.702 143.144 172.206 143.592C171.71 144.04 171.462 144.616 171.462 145.32C171.462 146.024 171.71 146.592 172.206 147.024C172.702 147.456 173.414 147.672 174.342 147.672C174.886 147.672 175.406 147.576 175.902 147.384C176.398 147.176 176.806 146.84 177.126 146.376C177.462 145.896 177.646 145.24 177.678 144.408L178.302 145.32C178.222 146.232 177.998 147 177.63 147.624C177.278 148.232 176.782 148.696 176.142 149.016C175.518 149.336 174.758 149.496 173.862 149.496ZM188.314 149.544C186.634 149.544 185.33 149.184 184.402 148.464C183.49 147.744 183.018 146.76 182.986 145.512H185.146C185.178 146.008 185.426 146.48 185.89 146.928C186.37 147.36 187.178 147.576 188.314 147.576C189.338 147.576 190.122 147.376 190.666 146.976C191.21 146.56 191.482 146.056 191.482 145.464C191.482 144.936 191.282 144.528 190.882 144.24C190.482 143.936 189.834 143.736 188.938 143.64L187.546 143.496C186.33 143.368 185.338 143.008 184.57 142.416C183.802 141.808 183.418 140.96 183.418 139.872C183.418 139.056 183.626 138.36 184.042 137.784C184.458 137.192 185.034 136.744 185.77 136.44C186.506 136.12 187.354 135.96 188.314 135.96C189.754 135.96 190.922 136.28 191.818 136.92C192.714 137.56 193.178 138.512 193.21 139.776H191.05C191.034 139.264 190.794 138.832 190.33 138.48C189.882 138.112 189.21 137.928 188.314 137.928C187.418 137.928 186.738 138.112 186.274 138.48C185.81 138.848 185.578 139.312 185.578 139.872C185.578 140.352 185.738 140.736 186.058 141.024C186.394 141.312 186.938 141.496 187.69 141.576L189.082 141.72C190.458 141.864 191.562 142.248 192.394 142.872C193.226 143.48 193.642 144.344 193.642 145.464C193.642 146.264 193.41 146.976 192.946 147.6C192.498 148.208 191.874 148.688 191.074 149.04C190.274 149.376 189.354 149.544 188.314 149.544ZM196.291 149.16V146.232H199.075V149.16H196.291Z" fill="#9E2626"/>
<path d="M24.952 351.16V335.272H27.304V351.16H24.952ZM19.624 335.752V333.64H32.632V335.752H19.624ZM38.7964 351.544C37.2764 351.544 36.1084 351.048 35.2924 350.056C34.4764 349.064 34.0684 347.632 34.0684 345.76V338.32H36.3724V346.216C36.3724 347.224 36.6444 348.016 37.1884 348.592C37.7324 349.152 38.4684 349.432 39.3964 349.432C40.3564 349.432 41.1404 349.128 41.7484 348.52C42.3564 347.896 42.6604 347.048 42.6604 345.976V338.32H44.9644V351.16H43.1404V345.664H43.4284C43.4284 346.928 43.2604 348 42.9244 348.88C42.5884 349.744 42.0844 350.408 41.4124 350.872C40.7564 351.32 39.9164 351.544 38.8924 351.544H38.7964ZM54.7788 351.592C53.8668 351.592 53.0268 351.424 52.2588 351.088C51.4908 350.752 50.8188 350.28 50.2428 349.672C49.6828 349.064 49.2428 348.36 48.9228 347.56C48.6188 346.76 48.4668 345.896 48.4668 344.968V344.536C48.4668 343.624 48.6188 342.768 48.9228 341.968C49.2268 341.168 49.6508 340.464 50.1948 339.856C50.7548 339.248 51.4108 338.776 52.1628 338.44C52.9308 338.088 53.7788 337.912 54.7068 337.912C55.6828 337.912 56.5708 338.12 57.3708 338.536C58.1708 338.936 58.8268 339.568 59.3387 340.432C59.8507 341.296 60.1388 342.416 60.2028 343.792L59.2428 342.256V333.64H61.5468V351.16H59.7228V345.472H60.3948C60.3308 346.928 60.0268 348.112 59.4828 349.024C58.9388 349.92 58.2508 350.576 57.4188 350.992C56.6028 351.392 55.7228 351.592 54.7788 351.592ZM55.0908 349.576C55.8748 349.576 56.5868 349.4 57.2268 349.048C57.8668 348.696 58.3788 348.192 58.7628 347.536C59.1468 346.864 59.3387 346.08 59.3387 345.184V344.08C59.3387 343.2 59.1388 342.456 58.7388 341.848C58.3548 341.224 57.8348 340.752 57.1788 340.432C56.5388 340.096 55.8348 339.928 55.0668 339.928C54.2188 339.928 53.4668 340.128 52.8108 340.528C52.1708 340.928 51.6668 341.488 51.2988 342.208C50.9468 342.928 50.7708 343.776 50.7708 344.752C50.7708 345.728 50.9548 346.584 51.3228 347.32C51.6908 348.04 52.2028 348.6 52.8588 349C53.5148 349.384 54.2588 349.576 55.0908 349.576ZM71.8776 351.592C70.7576 351.592 69.7736 351.4 68.9256 351.016C68.0776 350.632 67.3576 350.128 66.7656 349.504C66.1896 348.864 65.7496 348.152 65.4456 347.368C65.1576 346.584 65.0136 345.784 65.0136 344.968V344.536C65.0136 343.72 65.1656 342.92 65.4696 342.136C65.7736 341.336 66.2216 340.624 66.8136 340C67.4056 339.36 68.1256 338.856 68.9736 338.488C69.8216 338.104 70.7896 337.912 71.8776 337.912C72.9656 337.912 73.9336 338.104 74.7816 338.488C75.6296 338.856 76.3496 339.36 76.9416 340C77.5336 340.624 77.9816 341.336 78.2856 342.136C78.5896 342.92 78.7416 343.72 78.7416 344.536V344.968C78.7416 345.784 78.5896 346.584 78.2856 347.368C77.9976 348.152 77.5576 348.864 76.9656 349.504C76.3896 350.128 75.6776 350.632 74.8296 351.016C73.9816 351.4 72.9976 351.592 71.8776 351.592ZM71.8776 349.528C72.8376 349.528 73.6536 349.32 74.3256 348.904C75.0136 348.472 75.5336 347.896 75.8856 347.176C76.2536 346.456 76.4376 345.648 76.4376 344.752C76.4376 343.84 76.2536 343.024 75.8856 342.304C75.5176 341.584 74.9896 341.016 74.3016 340.6C73.6296 340.184 72.8216 339.976 71.8776 339.976C70.9496 339.976 70.1416 340.184 69.4536 340.6C68.7656 341.016 68.2376 341.584 67.8696 342.304C67.5016 343.024 67.3176 343.84 67.3176 344.752C67.3176 345.648 67.4936 346.456 67.8456 347.176C68.2136 347.896 68.7336 348.472 69.4056 348.904C70.0936 349.32 70.9176 349.528 71.8776 349.528ZM87.6533 355.96V338.344H89.4773V343.888L89.0453 343.84C89.1253 342.464 89.4133 341.344 89.9093 340.48C90.4213 339.6 91.0853 338.952 91.9013 338.536C92.7173 338.12 93.6053 337.912 94.5653 337.912C95.4933 337.912 96.3333 338.088 97.0853 338.44C97.8533 338.792 98.5093 339.272 99.0533 339.88C99.5973 340.488 100.013 341.192 100.301 341.992C100.589 342.792 100.733 343.64 100.733 344.536V344.968C100.733 345.864 100.581 346.712 100.277 347.512C99.9733 348.312 99.5413 349.016 98.9813 349.624C98.4373 350.232 97.7813 350.712 97.0133 351.064C96.2613 351.416 95.4293 351.592 94.5173 351.592C93.6053 351.592 92.7333 351.392 91.9013 350.992C91.0693 350.592 90.3813 349.944 89.8373 349.048C89.2933 348.152 88.9813 346.976 88.9013 345.52L89.9573 347.44V355.96H87.6533ZM94.1573 349.576C95.0213 349.576 95.7733 349.376 96.4133 348.976C97.0533 348.56 97.5493 347.992 97.9013 347.272C98.2533 346.536 98.4293 345.696 98.4293 344.752C98.4293 343.792 98.2533 342.952 97.9013 342.232C97.5493 341.512 97.0533 340.952 96.4133 340.552C95.7733 340.136 95.0213 339.928 94.1573 339.928C93.3893 339.928 92.6773 340.104 92.0213 340.456C91.3653 340.792 90.8373 341.288 90.4373 341.944C90.0533 342.584 89.8613 343.36 89.8613 344.272V345.376C89.8613 346.256 90.0613 347.008 90.4613 347.632C90.8613 348.256 91.3893 348.736 92.0453 349.072C92.7013 349.408 93.4053 349.576 94.1573 349.576ZM109.648 351.592C108.528 351.592 107.56 351.4 106.744 351.016C105.928 350.632 105.264 350.128 104.752 349.504C104.24 348.864 103.856 348.152 103.6 347.368C103.36 346.584 103.24 345.784 103.24 344.968V344.536C103.24 343.704 103.36 342.896 103.6 342.112C103.856 341.328 104.24 340.624 104.752 340C105.264 339.36 105.912 338.856 106.696 338.488C107.496 338.104 108.432 337.912 109.504 337.912C110.896 337.912 112.04 338.216 112.936 338.824C113.848 339.416 114.52 340.184 114.952 341.128C115.4 342.072 115.624 343.08 115.624 344.152V345.184H104.248V343.456H113.944L113.416 344.392C113.416 343.48 113.272 342.696 112.984 342.04C112.696 341.368 112.264 340.848 111.688 340.48C111.112 340.112 110.384 339.928 109.504 339.928C108.592 339.928 107.832 340.136 107.224 340.552C106.632 340.968 106.184 341.536 105.88 342.256C105.592 342.976 105.448 343.808 105.448 344.752C105.448 345.664 105.592 346.488 105.88 347.224C106.184 347.944 106.648 348.52 107.272 348.952C107.896 349.368 108.688 349.576 109.648 349.576C110.656 349.576 111.472 349.352 112.096 348.904C112.736 348.456 113.12 347.936 113.248 347.344H115.408C115.232 348.224 114.88 348.984 114.352 349.624C113.824 350.264 113.16 350.752 112.36 351.088C111.56 351.424 110.656 351.592 109.648 351.592ZM119.04 351.16V333.64H121.344V351.16H119.04ZM117.264 335.464V333.64H121.344V335.464H117.264ZM131.667 351.592C130.547 351.592 129.563 351.4 128.715 351.016C127.867 350.632 127.147 350.128 126.555 349.504C125.979 348.864 125.539 348.152 125.235 347.368C124.947 346.584 124.803 345.784 124.803 344.968V344.536C124.803 343.72 124.955 342.92 125.259 342.136C125.563 341.336 126.011 340.624 126.603 340C127.195 339.36 127.915 338.856 128.763 338.488C129.611 338.104 130.579 337.912 131.667 337.912C132.755 337.912 133.723 338.104 134.571 338.488C135.419 338.856 136.139 339.36 136.731 340C137.323 340.624 137.771 341.336 138.075 342.136C138.379 342.92 138.531 343.72 138.531 344.536V344.968C138.531 345.784 138.379 346.584 138.075 347.368C137.787 348.152 137.347 348.864 136.755 349.504C136.179 350.128 135.467 350.632 134.619 351.016C133.771 351.4 132.787 351.592 131.667 351.592ZM131.667 349.528C132.627 349.528 133.443 349.32 134.115 348.904C134.803 348.472 135.323 347.896 135.675 347.176C136.043 346.456 136.227 345.648 136.227 344.752C136.227 343.84 136.043 343.024 135.675 342.304C135.307 341.584 134.779 341.016 134.091 340.6C133.419 340.184 132.611 339.976 131.667 339.976C130.739 339.976 129.931 340.184 129.243 340.6C128.555 341.016 128.027 341.584 127.659 342.304C127.291 343.024 127.107 343.84 127.107 344.752C127.107 345.648 127.283 346.456 127.635 347.176C128.003 347.896 128.523 348.472 129.195 348.904C129.883 349.32 130.707 349.528 131.667 349.528ZM145.906 351.16L152.218 333.64H156.202L162.706 351.16H160.282L154.402 335.176L155.554 335.752H152.722L153.946 335.176L148.258 351.16H145.906ZM149.674 345.928L150.466 343.816H158.026L158.818 345.928H149.674ZM165.583 355.96V338.344H167.407V343.888L166.975 343.84C167.055 342.464 167.343 341.344 167.839 340.48C168.351 339.6 169.015 338.952 169.831 338.536C170.647 338.12 171.535 337.912 172.495 337.912C173.423 337.912 174.263 338.088 175.015 338.44C175.783 338.792 176.439 339.272 176.983 339.88C177.527 340.488 177.943 341.192 178.231 341.992C178.519 342.792 178.663 343.64 178.663 344.536V344.968C178.663 345.864 178.511 346.712 178.207 347.512C177.903 348.312 177.471 349.016 176.911 349.624C176.367 350.232 175.711 350.712 174.943 351.064C174.191 351.416 173.359 351.592 172.447 351.592C171.535 351.592 170.663 351.392 169.831 350.992C168.999 350.592 168.311 349.944 167.767 349.048C167.223 348.152 166.911 346.976 166.831 345.52L167.887 347.44V355.96H165.583ZM172.087 349.576C172.951 349.576 173.703 349.376 174.343 348.976C174.983 348.56 175.479 347.992 175.831 347.272C176.183 346.536 176.359 345.696 176.359 344.752C176.359 343.792 176.183 342.952 175.831 342.232C175.479 341.512 174.983 340.952 174.343 340.552C173.703 340.136 172.951 339.928 172.087 339.928C171.319 339.928 170.607 340.104 169.951 340.456C169.295 340.792 168.767 341.288 168.367 341.944C167.983 342.584 167.791 343.36 167.791 344.272V345.376C167.791 346.256 167.991 347.008 168.391 347.632C168.791 348.256 169.319 348.736 169.975 349.072C170.631 349.408 171.335 349.576 172.087 349.576ZM182.13 355.96V338.344H183.954V343.888L183.522 343.84C183.602 342.464 183.89 341.344 184.386 340.48C184.898 339.6 185.562 338.952 186.378 338.536C187.194 338.12 188.082 337.912 189.042 337.912C189.97 337.912 190.81 338.088 191.562 338.44C192.33 338.792 192.986 339.272 193.53 339.88C194.074 340.488 194.49 341.192 194.778 341.992C195.066 342.792 195.21 343.64 195.21 344.536V344.968C195.21 345.864 195.058 346.712 194.754 347.512C194.45 348.312 194.018 349.016 193.458 349.624C192.914 350.232 192.258 350.712 191.49 351.064C190.738 351.416 189.906 351.592 188.994 351.592C188.082 351.592 187.21 351.392 186.378 350.992C185.546 350.592 184.858 349.944 184.314 349.048C183.77 348.152 183.458 346.976 183.378 345.52L184.434 347.44V355.96H182.13ZM188.634 349.576C189.498 349.576 190.25 349.376 190.89 348.976C191.53 348.56 192.026 347.992 192.378 347.272C192.73 346.536 192.906 345.696 192.906 344.752C192.906 343.792 192.73 342.952 192.378 342.232C192.026 341.512 191.53 340.952 190.89 340.552C190.25 340.136 189.498 339.928 188.634 339.928C187.866 339.928 187.154 340.104 186.498 340.456C185.842 340.792 185.314 341.288 184.914 341.944C184.53 342.584 184.338 343.36 184.338 344.272V345.376C184.338 346.256 184.538 347.008 184.938 347.632C185.338 348.256 185.866 348.736 186.522 349.072C187.178 349.408 187.882 349.576 188.634 349.576ZM197.893 351.16V348.232H200.677V351.16H197.893Z" fill="#9E2626"/>
<path d="M70.416 547.064V545H74.328C75.16 545 75.848 544.84 76.392 544.52C76.936 544.184 77.344 543.736 77.616 543.176C77.904 542.616 78.048 541.992 78.048 541.304C78.048 540.6 77.904 539.968 77.616 539.408C77.344 538.848 76.936 538.408 76.392 538.088C75.848 537.768 75.16 537.608 74.328 537.608H70.416V535.544H73.896C75.336 535.544 76.536 535.776 77.496 536.24C78.472 536.688 79.208 537.328 79.704 538.16C80.2 538.992 80.448 539.976 80.448 541.112V541.496C80.448 542.616 80.2 543.6 79.704 544.448C79.208 545.28 78.472 545.928 77.496 546.392C76.536 546.84 75.336 547.064 73.896 547.064H70.416ZM68.544 553.16V535.544H70.896V553.16H68.544ZM91.1709 553.16V549.32H90.7869V544.88C90.7869 544 90.5549 543.336 90.0909 542.888C89.6429 542.44 88.9789 542.216 88.0989 542.216C87.6029 542.216 87.0909 542.224 86.5629 542.24C86.0349 542.256 85.5309 542.272 85.0509 542.288C84.5709 542.304 84.1549 542.328 83.8029 542.36V540.344C84.1549 540.312 84.5229 540.288 84.9069 540.272C85.3069 540.24 85.7149 540.224 86.1309 540.224C86.5469 540.208 86.9469 540.2 87.3309 540.2C88.6429 540.2 89.7149 540.36 90.5469 540.68C91.3789 540.984 91.9949 541.488 92.3949 542.192C92.7949 542.896 92.9949 543.848 92.9949 545.048V553.16H91.1709ZM86.9709 553.496C86.0109 553.496 85.1789 553.336 84.4749 553.016C83.7869 552.68 83.2509 552.2 82.8669 551.576C82.4989 550.952 82.3149 550.2 82.3149 549.32C82.3149 548.408 82.5149 547.648 82.9149 547.04C83.3309 546.432 83.9309 545.976 84.7149 545.672C85.4989 545.352 86.4429 545.192 87.5469 545.192H91.0269V546.92H87.4509C86.5229 546.92 85.8109 547.144 85.3149 547.592C84.8189 548.04 84.5709 548.616 84.5709 549.32C84.5709 550.024 84.8189 550.592 85.3149 551.024C85.8109 551.456 86.5229 551.672 87.4509 551.672C87.9949 551.672 88.5149 551.576 89.0109 551.384C89.5069 551.176 89.9149 550.84 90.2349 550.376C90.5709 549.896 90.7549 549.24 90.7869 548.408L91.4109 549.32C91.3309 550.232 91.1069 551 90.7389 551.624C90.3869 552.232 89.8909 552.696 89.2509 553.016C88.6269 553.336 87.8669 553.496 86.9709 553.496ZM97.2236 553.16V540.344H99.0476V545.624H98.9516C98.9516 543.752 99.3596 542.384 100.176 541.52C101.008 540.64 102.248 540.2 103.896 540.2H104.328V542.264H103.512C102.232 542.264 101.248 542.608 100.56 543.296C99.8716 543.968 99.5276 544.944 99.5276 546.224V553.16H97.2236ZM114.773 553.16V549.32H114.389V544.88C114.389 544 114.157 543.336 113.693 542.888C113.245 542.44 112.581 542.216 111.701 542.216C111.205 542.216 110.693 542.224 110.165 542.24C109.637 542.256 109.133 542.272 108.653 542.288C108.173 542.304 107.757 542.328 107.405 542.36V540.344C107.757 540.312 108.125 540.288 108.509 540.272C108.909 540.24 109.317 540.224 109.733 540.224C110.149 540.208 110.549 540.2 110.933 540.2C112.245 540.2 113.317 540.36 114.149 540.68C114.981 540.984 115.597 541.488 115.997 542.192C116.397 542.896 116.597 543.848 116.597 545.048V553.16H114.773ZM110.573 553.496C109.613 553.496 108.781 553.336 108.077 553.016C107.389 552.68 106.853 552.2 106.469 551.576C106.101 550.952 105.917 550.2 105.917 549.32C105.917 548.408 106.117 547.648 106.517 547.04C106.933 546.432 107.533 545.976 108.317 545.672C109.101 545.352 110.045 545.192 111.148 545.192H114.629V546.92H111.053C110.125 546.92 109.413 547.144 108.917 547.592C108.421 548.04 108.173 548.616 108.173 549.32C108.173 550.024 108.421 550.592 108.917 551.024C109.413 551.456 110.125 551.672 111.053 551.672C111.597 551.672 112.117 551.576 112.613 551.384C113.109 551.176 113.517 550.84 113.837 550.376C114.173 549.896 114.357 549.24 114.389 548.408L115.013 549.32C114.933 550.232 114.709 551 114.341 551.624C113.989 552.232 113.493 552.696 112.853 553.016C112.229 553.336 111.469 553.496 110.573 553.496ZM131.278 553.304C130.318 553.304 129.486 553.168 128.782 552.896C128.094 552.624 127.558 552.16 127.174 551.504C126.806 550.832 126.622 549.928 126.622 548.792V536.456H128.83V549.08C128.83 549.768 129.014 550.304 129.382 550.688C129.766 551.056 130.302 551.24 130.99 551.24H133.246V553.304H131.278ZM124.414 542.072V540.344H133.246V542.072H124.414ZM142.315 553.592C141.195 553.592 140.211 553.4 139.363 553.016C138.515 552.632 137.795 552.128 137.203 551.504C136.627 550.864 136.187 550.152 135.883 549.368C135.595 548.584 135.451 547.784 135.451 546.968V546.536C135.451 545.72 135.603 544.92 135.907 544.136C136.211 543.336 136.659 542.624 137.251 542C137.843 541.36 138.563 540.856 139.411 540.488C140.259 540.104 141.227 539.912 142.315 539.912C143.403 539.912 144.371 540.104 145.219 540.488C146.067 540.856 146.787 541.36 147.379 542C147.971 542.624 148.419 543.336 148.723 544.136C149.027 544.92 149.179 545.72 149.179 546.536V546.968C149.179 547.784 149.027 548.584 148.723 549.368C148.435 550.152 147.995 550.864 147.403 551.504C146.827 552.128 146.115 552.632 145.267 553.016C144.419 553.4 143.435 553.592 142.315 553.592ZM142.315 551.528C143.275 551.528 144.091 551.32 144.763 550.904C145.451 550.472 145.971 549.896 146.323 549.176C146.691 548.456 146.875 547.648 146.875 546.752C146.875 545.84 146.691 545.024 146.323 544.304C145.955 543.584 145.427 543.016 144.739 542.6C144.067 542.184 143.259 541.976 142.315 541.976C141.387 541.976 140.579 542.184 139.891 542.6C139.203 543.016 138.675 543.584 138.307 544.304C137.939 545.024 137.755 545.84 137.755 546.752C137.755 547.648 137.931 548.456 138.283 549.176C138.651 549.896 139.171 550.472 139.843 550.904C140.531 551.32 141.355 551.528 142.315 551.528ZM157.982 553.592C157.07 553.592 156.23 553.424 155.462 553.088C154.694 552.752 154.022 552.28 153.446 551.672C152.886 551.064 152.446 550.36 152.126 549.56C151.822 548.76 151.67 547.896 151.67 546.968V546.536C151.67 545.624 151.822 544.768 152.126 543.968C152.43 543.168 152.854 542.464 153.398 541.856C153.958 541.248 154.614 540.776 155.366 540.44C156.134 540.088 156.982 539.912 157.91 539.912C158.886 539.912 159.774 540.12 160.574 540.536C161.374 540.936 162.03 541.568 162.542 542.432C163.054 543.296 163.342 544.416 163.406 545.792L162.446 544.256V535.64H164.75V553.16H162.926V547.472H163.598C163.534 548.928 163.23 550.112 162.686 551.024C162.142 551.92 161.454 552.576 160.622 552.992C159.806 553.392 158.926 553.592 157.982 553.592ZM158.294 551.576C159.078 551.576 159.79 551.4 160.43 551.048C161.07 550.696 161.582 550.192 161.966 549.536C162.35 548.864 162.542 548.08 162.542 547.184V546.08C162.542 545.2 162.342 544.456 161.942 543.848C161.558 543.224 161.038 542.752 160.382 542.432C159.742 542.096 159.038 541.928 158.27 541.928C157.422 541.928 156.67 542.128 156.014 542.528C155.374 542.928 154.87 543.488 154.502 544.208C154.15 544.928 153.974 545.776 153.974 546.752C153.974 547.728 154.158 548.584 154.526 549.32C154.894 550.04 155.406 550.6 156.062 551C156.718 551.384 157.462 551.576 158.294 551.576ZM175.081 553.592C173.961 553.592 172.977 553.4 172.129 553.016C171.281 552.632 170.561 552.128 169.969 551.504C169.393 550.864 168.953 550.152 168.649 549.368C168.361 548.584 168.217 547.784 168.217 546.968V546.536C168.217 545.72 168.369 544.92 168.673 544.136C168.977 543.336 169.425 542.624 170.017 542C170.609 541.36 171.329 540.856 172.177 540.488C173.025 540.104 173.993 539.912 175.081 539.912C176.169 539.912 177.137 540.104 177.985 540.488C178.833 540.856 179.553 541.36 180.145 542C180.737 542.624 181.185 543.336 181.489 544.136C181.793 544.92 181.945 545.72 181.945 546.536V546.968C181.945 547.784 181.793 548.584 181.489 549.368C181.201 550.152 180.761 550.864 180.169 551.504C179.593 552.128 178.881 552.632 178.033 553.016C177.185 553.4 176.201 553.592 175.081 553.592ZM175.081 551.528C176.041 551.528 176.857 551.32 177.529 550.904C178.217 550.472 178.737 549.896 179.089 549.176C179.457 548.456 179.641 547.648 179.641 546.752C179.641 545.84 179.457 545.024 179.089 544.304C178.721 543.584 178.193 543.016 177.505 542.6C176.833 542.184 176.025 541.976 175.081 541.976C174.153 541.976 173.345 542.184 172.657 542.6C171.969 543.016 171.441 543.584 171.073 544.304C170.705 545.024 170.521 545.84 170.521 546.752C170.521 547.648 170.697 548.456 171.049 549.176C171.417 549.896 171.937 550.472 172.609 550.904C173.297 551.32 174.121 551.528 175.081 551.528ZM189.596 553.544C187.916 553.544 186.612 553.184 185.684 552.464C184.772 551.744 184.3 550.76 184.268 549.512H186.428C186.46 550.008 186.708 550.48 187.172 550.928C187.652 551.36 188.46 551.576 189.596 551.576C190.62 551.576 191.404 551.376 191.948 550.976C192.492 550.56 192.764 550.056 192.764 549.464C192.764 548.936 192.564 548.528 192.164 548.24C191.764 547.936 191.116 547.736 190.22 547.64L188.828 547.496C187.612 547.368 186.62 547.008 185.852 546.416C185.084 545.808 184.7 544.96 184.7 543.872C184.7 543.056 184.908 542.36 185.324 541.784C185.74 541.192 186.316 540.744 187.052 540.44C187.788 540.12 188.636 539.96 189.596 539.96C191.036 539.96 192.204 540.28 193.1 540.92C193.996 541.56 194.46 542.512 194.492 543.776H192.332C192.316 543.264 192.076 542.832 191.612 542.48C191.164 542.112 190.492 541.928 189.596 541.928C188.7 541.928 188.02 542.112 187.556 542.48C187.092 542.848 186.86 543.312 186.86 543.872C186.86 544.352 187.02 544.736 187.34 545.024C187.676 545.312 188.22 545.496 188.972 545.576L190.364 545.72C191.74 545.864 192.844 546.248 193.676 546.872C194.508 547.48 194.924 548.344 194.924 549.464C194.924 550.264 194.692 550.976 194.228 551.6C193.78 552.208 193.156 552.688 192.356 553.04C191.556 553.376 190.636 553.544 189.596 553.544ZM197.572 553.16V550.232H200.356V553.16H197.572Z" fill="#9E2626"/>
<g filter="url(#filter0_dddd_10_41)">
<path d="M340.692 72H265.308C247.465 72 233 86.4647 233 104.308V179.692C233 197.535 247.465 212 265.308 212H340.692C358.535 212 373 197.535 373 179.692V104.308C373 86.4647 358.535 72 340.692 72Z" fill="#FCF8F8"/>
</g>
<path d="M303 109V175" stroke="#9E2626" stroke-width="6" stroke-linecap="round" stroke-linejoin="round"/>
<path d="M318 121H295.5C292.715 121 290.045 122.106 288.075 124.075C286.106 126.044 285 128.715 285 131.5C285 134.285 286.106 136.955 288.075 138.924C290.045 140.894 292.715 142 295.5 142H310.5C313.285 142 315.955 143.106 317.925 145.075C319.894 147.044 321 149.715 321 152.5C321 155.285 319.894 157.955 317.925 159.924C315.955 161.894 313.285 163 310.5 163H285" stroke="#9E2626" stroke-width="6" stroke-linecap="round" stroke-linejoin="round"/>
<g filter="url(#filter1_dddd_10_41)">
<path d="M340.692 274H265.308C247.465 274 233 288.465 233 306.308V381.692C233 399.535 247.465 414 265.308 414H340.692C358.535 414 373 399.535 373 381.692V306.308C373 288.465 358.535 274 340.692 274Z" fill="#FCF8F8"/>
</g>
<path d="M318 314H288C284.686 314 282 316.686 282 320V368C282 371.314 284.686 374 288 374H318C321.314 374 324 371.314 324 368V320C324 316.686 321.314 314 318 314Z" stroke="#9E2626" stroke-width="6" stroke-linecap="round" stroke-linejoin="round"/>
<path d="M303 362H303.03" stroke="#9E2626" stroke-width="6" stroke-linecap="round" stroke-linejoin="round"/>
<g filter="url(#filter2_dddd_10_41)">
<path d="M340.692 476H265.308C247.465 476 233 490.465 233 508.308V583.692C233 601.535 247.465 616 265.308 616H340.692C358.535 616 373 601.535 373 583.692V508.308C373 490.465 358.535 476 340.692 476Z" fill="#FCF8F8"/>
</g>
<path d="M329.874 523.835C328.342 522.302 326.522 521.086 324.52 520.257C322.518 519.427 320.371 519 318.204 519C316.036 519 313.89 519.427 311.888 520.257C309.885 521.086 308.066 522.302 306.534 523.835L303.354 527.015L300.174 523.835C297.079 520.74 292.881 519.002 288.504 519.002C284.127 519.002 279.929 520.74 276.834 523.835C273.739 526.931 272 531.128 272 535.505C272 539.883 273.739 544.08 276.834 547.175L280.014 550.355L303.354 573.695L326.694 550.355L329.874 547.175C331.407 545.643 332.623 543.824 333.453 541.822C334.282 539.819 334.709 537.673 334.709 535.505C334.709 533.338 334.282 531.192 333.453 529.189C332.623 527.187 331.407 525.368 329.874 523.835Z" stroke="#9E2626" stroke-width="6" stroke-linecap="round" stroke-linejoin="round"/>
</g>
<defs>
<filter id="filter0_dddd_10_41" x="153" y="43" width="300" height="300" filterUnits="userSpaceOnUse" color-interpolation-filters="sRGB">
<feFlood flood-opacity="0" result="BackgroundImageFix"/>
<feColorMatrix in="SourceAlpha" type="matrix" values="0 0 0 0 0 0 0 0 0 0 0 0 0 0 0 0 0 0 127 0" result="hardAlpha"/>
<feOffset dy="2.30969"/>
<feGaussianBlur stdDeviation="1.81152"/>
<feColorMatrix type="matrix" values="0 0 0 0 0.768627 0 0 0 0 0.313726 0 0 0 0 0.313726 0 0 0 0.0278729 0"/>
<feBlend mode="normal" in2="BackgroundImageFix" result="effect1_dropShadow_10_41"/>
<feColorMatrix in="SourceAlpha" type="matrix" values="0 0 0 0 0 0 0 0 0 0 0 0 0 0 0 0 0 0 127 0" result="hardAlpha"/>
<feOffset dy="6.38599"/>
<feGaussianBlur stdDeviation="5.00862"/>
<feColorMatrix type="matrix" values="0 0 0 0 0.768627 0 0 0 0 0.313726 0 0 0 0 0.313726 0 0 0 0.04 0"/>
<feBlend mode="normal" in2="effect1_dropShadow_10_41" result="effect2_dropShadow_10_41"/>
<feColorMatrix in="SourceAlpha" type="matrix" values="0 0 0 0 0 0 0 0 0 0 0 0 0 0 0 0 0 0 127 0" result="hardAlpha"/>
<feOffset dy="15.375"/>
<feGaussianBlur stdDeviation="12.0588"/>
<feColorMatrix type="matrix" values="0 0 0 0 0.768627 0 0 0 0 0.313726 0 0 0 0 0.313726 0 0 0 0.0521271 0"/>
<feBlend mode="normal" in2="effect2_dropShadow_10_41" result="effect3_dropShadow_10_41"/>
<feColorMatrix in="SourceAlpha" type="matrix" values="0 0 0 0 0 0 0 0 0 0 0 0 0 0 0 0 0 0 127 0" result="hardAlpha"/>
<feOffset dy="51"/>
<feGaussianBlur stdDeviation="40"/>
<feColorMatrix type="matrix" values="0 0 0 0 0.768627 0 0 0 0 0.313726 0 0 0 0 0.313726 0 0 0 0.08 0"/>
<feBlend mode="normal" in2="effect3_dropShadow_10_41" result="effect4_dropShadow_10_41"/>
<feBlend mode="normal" in="SourceGraphic" in2="effect4_dropShadow_10_41" result="shape"/>
</filter>
<filter id="filter1_dddd_10_41" x="153" y="245" width="300" height="300" filterUnits="userSpaceOnUse" color-interpolation-filters="sRGB">
<feFlood flood-opacity="0" result="BackgroundImageFix"/>
<feColorMatrix in="SourceAlpha" type="matrix" values="0 0 0 0 0 0 0 0 0 0 0 0 0 0 0 0 0 0 127 0" result="hardAlpha"/>
<feOffset dy="2.30969"/>
<feGaussianBlur stdDeviation="1.81152"/>
<feColorMatrix type="matrix" values="0 0 0 0 0.768627 0 0 0 0 0.313726 0 0 0 0 0.313726 0 0 0 0.0278729 0"/>
<feBlend mode="normal" in2="BackgroundImageFix" result="effect1_dropShadow_10_41"/>
<feColorMatrix in="SourceAlpha" type="matrix" values="0 0 0 0 0 0 0 0 0 0 0 0 0 0 0 0 0 0 127 0" result="hardAlpha"/>
<feOffset dy="6.38599"/>
<feGaussianBlur stdDeviation="5.00862"/>
<feColorMatrix type="matrix" values="0 0 0 0 0.768627 0 0 0 0 0.313726 0 0 0 0 0.313726 0 0 0 0.04 0"/>
<feBlend mode="normal" in2="effect1_dropShadow_10_41" result="effect2_dropShadow_10_41"/>
<feColorMatrix in="SourceAlpha" type="matrix" values="0 0 0 0 0 0 0 0 0 0 0 0 0 0 0 0 0 0 127 0" result="hardAlpha"/>
<feOffset dy="15.375"/>
<feGaussianBlur stdDeviation="12.0588"/>
<feColorMatrix type="matrix" values="0 0 0 0 0.768627 0 0 0 0 0.313726 0 0 0 0 0.313726 0 0 0 0.0521271 0"/>
<feBlend mode="normal" in2="effect2_dropShadow_10_41" result="effect3_dropShadow_10_41"/>
<feColorMatrix in="SourceAlpha" type="matrix" values="0 0 0 0 0 0 0 0 0 0 0 0 0 0 0 0 0 0 127 0" result="hardAlpha"/>
<feOffset dy="51"/>
<feGaussianBlur stdDeviation="40"/>
<feColorMatrix type="matrix" values="0 0 0 0 0.768627 0 0 0 0 0.313726 0 0 0 0 0.313726 0 0 0 0.08 0"/>
<feBlend mode="normal" in2="effect3_dropShadow_10_41" result="effect4_dropShadow_10_41"/>
<feBlend mode="normal" in="SourceGraphic" in2="effect4_dropShadow_10_41" result="shape"/>
</filter>
<filter id="filter2_dddd_10_41" x="153" y="447" width="300" height="300" filterUnits="userSpaceOnUse" color-interpolation-filters="sRGB">
<feFlood flood-opacity="0" result="BackgroundImageFix"/>
<feColorMatrix in="SourceAlpha" type="matrix" values="0 0 0 0 0 0 0 0 0 0 0 0 0 0 0 0 0 0 127 0" result="hardAlpha"/>
<feOffset dy="2.30969"/>
<feGaussianBlur stdDeviation="1.81152"/>
<feColorMatrix type="matrix" values="0 0 0 0 0.768627 0 0 0 0 0.313726 0 0 0 0 0.313726 0 0 0 0.0278729 0"/>
<feBlend mode="normal" in2="BackgroundImageFix" result="effect1_dropShadow_10_41"/>
<feColorMatrix in="SourceAlpha" type="matrix" values="0 0 0 0 0 0 0 0 0 0 0 0 0 0 0 0 0 0 127 0" result="hardAlpha"/>
<feOffset dy="6.38599"/>
<feGaussianBlur stdDeviation="5.00862"/>
<feColorMatrix type="matrix" values="0 0 0 0 0.768627 0 0 0 0 0.313726 0 0 0 0 0.313726 0 0 0 0.04 0"/>
<feBlend mode="normal" in2="effect1_dropShadow_10_41" result="effect2_dropShadow_10_41"/>
<feColorMatrix in="SourceAlpha" type="matrix" values="0 0 0 0 0 0 0 0 0 0 0 0 0 0 0 0 0 0 127 0" result="hardAlpha"/>
<feOffset dy="15.375"/>
<feGaussianBlur stdDeviation="12.0588"/>
<feColorMatrix type="matrix" values="0 0 0 0 0.768627 0 0 0 0 0.313726 0 0 0 0 0.313726 0 0 0 0.0521271 0"/>
<feBlend mode="normal" in2="effect2_dropShadow_10_41" result="effect3_dropShadow_10_41"/>
<feColorMatrix in="SourceAlpha" type="matrix" values="0 0 0 0 0 0 0 0 0 0 0 0 0 0 0 0 0 0 127 0" result="hardAlpha"/>
<feOffset dy="51"/>
<feGaussianBlur stdDeviation="40"/>
<feColorMatrix type="matrix" values="0 0 0 0 0.768627 0 0 0 0 0.313726 0 0 0 0 0.313726 0 0 0 0.08 0"/>
<feBlend mode="normal" in2="effect3_dropShadow_10_41" result="effect4_dropShadow_10_41"/>
<feBlend mode="normal" in="SourceGraphic" in2="effect4_dropShadow_10_41" result="shape"/>
</filter>
<linearGradient id="paint0_linear_10_41" x1="-nan" y1="-nan" x2="-nan" y2="-nan" gradientUnits="userSpaceOnUse">
<stop stop-color="#9E2626"/>
<stop offset="1" stop-color="#9E2626" stop-opacity="0"/>
</linearGradient>
<clipPath id="clip0_10_41">
<rect width="410" height="880" fill="white"/>
</clipPath>
</defs>
</svg>
