<svg width="466" height="512" viewBox="0 0 466 512" fill="none" xmlns="http://www.w3.org/2000/svg">
<g filter="url(#filter0_dddd_12_539)">
<path d="M342.081 29H125.919C81.2285 29 45 65.2285 45 109.919V326.081C45 370.771 81.2285 407 125.919 407H342.081C386.771 407 423 370.771 423 326.081V109.919C423 65.2285 386.771 29 342.081 29Z" fill="url(#paint0_linear_12_539)"/>
</g>
<path d="M320.258 195.266C320.258 195.266 309.029 170 306.221 170C303.414 170 286.57 170 285.167 170C283.763 170.001 283.763 172.808 285.167 175.615C286.57 178.422 303.414 209.302 306.221 209.302C309.029 209.302 309.029 209.302 311.836 209.302C314.643 209.302 320.258 200.88 320.258 200.88M320.258 195.266V200.88M320.258 195.266C320.258 195.266 334.294 170 337.101 170C339.909 170 353.945 170 356.752 170C359.56 170 356.752 175.615 356.752 175.615C356.752 175.615 339.909 207.898 337.101 207.898C334.294 207.899 328.68 207.898 327.276 207.898C325.872 207.898 320.258 200.88 320.258 200.88" stroke="white" stroke-width="5"/>
<path d="M319.907 240.182C319.907 240.182 308.678 265.448 305.871 265.447C303.063 265.447 286.22 265.448 284.816 265.447C283.412 265.447 283.412 262.64 284.816 259.833C286.22 257.026 303.063 226.145 305.871 226.145C308.678 226.145 308.678 226.145 311.485 226.145C314.293 226.145 319.907 234.567 319.907 234.567M319.907 240.182V234.567M319.907 240.182C319.907 240.182 333.943 265.447 336.751 265.447C339.558 265.447 353.594 265.448 356.402 265.447C359.209 265.447 356.402 259.833 356.402 259.833C356.402 259.833 339.558 227.549 336.751 227.549C333.943 227.549 328.329 227.549 326.925 227.549C325.522 227.549 319.907 234.567 319.907 234.567" stroke="white" stroke-width="5"/>
<path d="M108 172.727C108 175.454 108 194.544 108 199.998C108 205.452 112.103 205.452 112.103 205.452C112.103 205.452 153.13 205.452 157.232 205.452C161.335 205.452 161.335 209.543 161.335 209.543C161.335 209.543 161.335 219.087 161.335 221.814C161.335 224.541 158.6 224.541 158.6 224.541C158.6 224.541 116.205 224.541 112.103 224.541C108 224.541 108 228.632 108 228.632C108 228.632 108 257.266 108 261.357C108 265.448 112.103 265.448 112.103 265.448H128.513C128.513 265.448 131.249 265.448 131.249 261.357C131.249 257.266 131.249 190.453 131.249 190.453V187.726C131.249 187.726 154.497 187.726 158.6 187.726C162.702 187.726 162.69 187.726 162.702 186.362C162.714 184.999 162.702 175.454 162.702 172.727C162.702 170 158.6 170 158.6 170H112.103C112.103 170 108 170 108 172.727Z" stroke="white" stroke-width="5"/>
<path d="M247.292 261.415C247.291 257.382 247.292 205.587 247.292 202.264C247.292 198.941 256.702 192.854 256.702 192.854C256.702 192.854 247.291 188.821 247.292 186.132C247.293 183.443 247.292 172.689 247.292 172.689C247.292 172.689 247.292 170 249.981 170C252.67 170 262.08 170 264.768 170C267.457 170 267.457 172.689 267.457 172.689C267.457 172.689 267.462 184.222 267.457 186.132C267.452 188.042 258.047 192.854 258.047 192.854C258.047 192.854 268.8 198.231 268.801 202.264C268.802 205.526 268.802 239.568 268.801 254.6L268.801 261.415C268.801 265.448 266.113 265.448 266.113 265.448H249.981C249.981 265.448 247.293 265.448 247.292 261.415Z" stroke="white" stroke-width="5"/>
<path d="M177.84 175.454C177.84 175.454 177.84 234.086 177.84 238.177C177.84 242.267 177.84 246.358 186.021 246.358C194.203 246.358 229.654 246.358 229.654 246.358C229.654 246.358 232.381 246.358 232.381 249.085C232.381 251.812 232.381 262.72 232.381 262.72C232.381 262.72 232.381 265.448 229.654 265.448C226.927 265.448 210.565 265.447 207.838 265.448C205.11 265.448 202.384 262.72 202.384 257.266C202.383 251.812 202.383 175.454 202.384 172.727C202.384 170 199.657 170 196.929 170C194.202 170 183.293 170 180.567 170C177.841 170 177.84 175.454 177.84 175.454Z" stroke="white" stroke-width="5"/>
<defs>
<filter id="filter0_dddd_12_539" x="-35" y="0" width="538" height="538" filterUnits="userSpaceOnUse" color-interpolation-filters="sRGB">
<feFlood flood-opacity="0" result="BackgroundImageFix"/>
<feColorMatrix in="SourceAlpha" type="matrix" values="0 0 0 0 0 0 0 0 0 0 0 0 0 0 0 0 0 0 127 0" result="hardAlpha"/>
<feOffset dy="2.30969"/>
<feGaussianBlur stdDeviation="1.81152"/>
<feColorMatrix type="matrix" values="0 0 0 0 0.662745 0 0 0 0 0.313726 0 0 0 0 0.768627 0 0 0 0.0278729 0"/>
<feBlend mode="normal" in2="BackgroundImageFix" result="effect1_dropShadow_12_539"/>
<feColorMatrix in="SourceAlpha" type="matrix" values="0 0 0 0 0 0 0 0 0 0 0 0 0 0 0 0 0 0 127 0" result="hardAlpha"/>
<feOffset dy="6.38599"/>
<feGaussianBlur stdDeviation="5.00862"/>
<feColorMatrix type="matrix" values="0 0 0 0 0.662745 0 0 0 0 0.313726 0 0 0 0 0.768627 0 0 0 0.04 0"/>
<feBlend mode="normal" in2="effect1_dropShadow_12_539" result="effect2_dropShadow_12_539"/>
<feColorMatrix in="SourceAlpha" type="matrix" values="0 0 0 0 0 0 0 0 0 0 0 0 0 0 0 0 0 0 127 0" result="hardAlpha"/>
<feOffset dy="15.375"/>
<feGaussianBlur stdDeviation="12.0588"/>
<feColorMatrix type="matrix" values="0 0 0 0 0.662745 0 0 0 0 0.313726 0 0 0 0 0.768627 0 0 0 0.0521271 0"/>
<feBlend mode="normal" in2="effect2_dropShadow_12_539" result="effect3_dropShadow_12_539"/>
<feColorMatrix in="SourceAlpha" type="matrix" values="0 0 0 0 0 0 0 0 0 0 0 0 0 0 0 0 0 0 127 0" result="hardAlpha"/>
<feOffset dy="51"/>
<feGaussianBlur stdDeviation="40"/>
<feColorMatrix type="matrix" values="0 0 0 0 0.662745 0 0 0 0 0.313726 0 0 0 0 0.768627 0 0 0 0.08 0"/>
<feBlend mode="normal" in2="effect3_dropShadow_12_539" result="effect4_dropShadow_12_539"/>
<feBlend mode="normal" in="SourceGraphic" in2="effect4_dropShadow_12_539" result="shape"/>
</filter>
<linearGradient id="paint0_linear_12_539" x1="364.41" y1="80.03" x2="116.82" y2="365.42" gradientUnits="userSpaceOnUse">
<stop stop-color="#C45050"/>
<stop offset="1" stop-color="#9E2626"/>
</linearGradient>
</defs>
</svg>
