<svg width="140" height="55" viewBox="0 0 140 55" fill="none" xmlns="http://www.w3.org/2000/svg">
<path d="M118.484 14.9845C118.484 14.9845 112.269 0.99992 110.715 1.00009C109.161 1.00026 99.8383 0.999822 99.0613 1.00009C98.2843 1.00036 98.2843 2.55409 99.0613 4.10773C99.8383 5.66138 109.161 22.7536 110.715 22.7536C112.269 22.7536 112.269 22.7536 113.823 22.7536C115.376 22.7536 118.484 18.0921 118.484 18.0921M118.484 14.9845V18.0921M118.484 14.9845C118.484 14.9845 126.253 1.00012 127.807 1.00009C129.361 1.00006 137.13 0.999941 138.684 1.00009C140.238 1.00024 138.684 4.10773 138.684 4.10773C138.684 4.10773 129.361 21.9765 127.807 21.9767C126.253 21.9769 123.146 21.9767 122.369 21.9767C121.592 21.9767 118.484 18.0921 118.484 18.0921" stroke="#9E2626"/>
<path d="M118.29 39.8455C118.29 39.8455 112.075 53.8301 110.521 53.8299C108.967 53.8297 99.6444 53.8302 98.8674 53.8299C98.0905 53.8296 98.0904 52.2759 98.8674 50.7223C99.6445 49.1686 108.967 32.0764 110.521 32.0764C112.075 32.0764 112.075 32.0764 113.629 32.0764C115.183 32.0764 118.29 36.7379 118.29 36.7379M118.29 39.8455V36.7379M118.29 39.8455C118.29 39.8455 126.059 53.8299 127.613 53.8299C129.167 53.8299 136.936 53.8301 138.49 53.8299C140.044 53.8298 138.49 50.7223 138.49 50.7223C138.49 50.7223 129.167 32.8535 127.613 32.8533C126.059 32.8531 122.952 32.8533 122.175 32.8533C121.398 32.8533 118.29 36.7379 118.29 36.7379" stroke="#9E2626"/>
<path d="M1 2.50943C0.999999 4.01888 1 14.5849 1 17.6037C1 20.6225 3.27083 20.6226 3.27083 20.6226C3.27083 20.6226 25.9791 20.6225 28.2499 20.6226C30.5207 20.6226 30.5207 22.8867 30.5207 22.8867C30.5207 22.8867 30.5207 28.1697 30.5207 29.6791C30.5207 31.1886 29.0068 31.1886 29.0068 31.1886C29.0068 31.1886 5.54149 31.1886 3.27083 31.1886C1.00017 31.1886 1 33.4527 1 33.4527C1 33.4527 1.00013 49.3017 1 51.5659C0.99987 53.83 3.27083 53.83 3.27083 53.83H12.3541C12.3541 53.83 13.868 53.83 13.868 51.5659C13.868 49.3017 13.868 12.3207 13.868 12.3207V10.8113C13.868 10.8113 26.736 10.8112 29.0068 10.8113C31.2777 10.8113 31.271 10.8113 31.2777 10.0566C31.2843 9.30186 31.2777 4.01885 31.2777 2.50943C31.2777 1.00001 29.0068 1 29.0068 1H3.27083C3.27083 1 1 0.999973 1 2.50943Z" stroke="#9E2626"/>
<path d="M78.0977 51.5977C78.0971 49.3655 78.0976 20.6974 78.0977 18.858C78.0978 17.0187 83.3063 13.6495 83.3063 13.6495C83.3063 13.6495 78.0974 11.4172 78.0977 9.92904C78.0981 8.4409 78.0977 2.4882 78.0977 2.4882C78.0977 2.4882 78.0976 1.00008 79.5859 1.00003H87.7708C89.259 1.00003 89.259 2.4882 89.259 2.4882C89.259 2.4882 89.2615 8.87192 89.259 9.92904C89.2565 10.9862 84.0504 13.6495 84.0504 13.6495C84.0504 13.6495 90.0025 16.6258 90.0031 18.858C90.0036 20.6635 90.0033 39.5058 90.0031 47.8256L90.0031 51.5977C90.0031 53.83 88.5149 53.83 88.5149 53.83H79.5859C79.5859 53.83 78.0984 53.83 78.0977 51.5977Z" stroke="#9E2626"/>
<path d="M39.6563 4.01888C39.6563 4.01888 39.6562 36.4717 39.6563 38.7357C39.6564 40.9998 39.6562 43.2641 44.1846 43.264C48.713 43.2639 68.3354 43.264 68.3354 43.264C68.3354 43.264 69.8449 43.2641 69.8449 44.7734C69.8449 46.2828 69.8449 52.3206 69.8449 52.3206C69.8449 52.3206 69.8447 53.83 68.3354 53.83C66.8261 53.83 57.7696 53.8299 56.26 53.83C54.7504 53.8301 53.2413 52.3205 53.2411 49.3017C53.241 46.2829 53.241 4.01888 53.2411 2.50945C53.2413 1.00002 51.7317 1.00002 50.2223 1.00002C48.7129 1.00002 42.6747 0.999974 41.1657 1.00002C39.6567 1.00007 39.6563 4.01888 39.6563 4.01888Z" stroke="#9E2626"/>
</svg>
